# xmcd
#
# Track frame offsets: 
#        150
#        18309
#        37477
#        55636
#
# Disc length: 993 seconds
#
# Revision: 0
# Processed by: cddbd v1.5.2PL0 Copyright (c) Steve Scherf et al.
# Submitted via: ExactAudioCopy v0.95a5
#
DISCID=2e03df04
DTITLE=SAKAI NORIKO - SEKAIJYU NO DAREYORI KITTO
DYEAR=2007
DGENRE=JPop
TTITLE0=SEKAIJYU NO DAREYORI KITTO
TTITLE1=AOI USAGI - 2007 Version - 
TTITLE2=SEKAIJYU NO DAREYORI KITTO - Back Track - 
TTITLE3=AOI USAGI - 2007 Version Back Track - 
EXTD=
EXTT0=
EXTT1=
EXTT2=
EXTT3=
PLAYORDER=
